# AST/ASF file generated using VICON BodyLanguage
# -----------------------------------------------
:version 1.10
:name VICON
:units
  mass 1.0
  length 0.45
  angle deg
:documentation
   .ast/.asf automatically generated from VICON data using
   VICON BodyBuilder and BodyLanguage model FoxedUp or BRILLIANT.MOD
:root
   order TX TY TZ RX RY RZ
   axis XYZ
   position 0 0 0  
   orientation 0 0 0 
:bonedata
  begin
     id 1 
     name lhipjoint
     direction 0.630082 -0.636569 0.44472 
     length 2.82754 
     axis 0 0 0  XYZ
  end
  begin
     id 2 
     name lfemur
     direction 0.34202 -0.939693 0  
     length 7.26371  
     axis 0 0 20  XYZ
    dof rx ry rz
    limits (-160.0 20.0)
           (-70.0 70.0)
           (-60.0 70.0)
  end
  begin
     id 3 
     name ltibia
     direction 0.34202 -0.939693 0   
     length 7.88616   
     axis 0 0 20   XYZ
    dof rx
    limits (-10.0 170.0)
  end
  begin
     id 4 
     name lfoot
     direction 0.0603448 -0.165796 0.984312   
     length 1.77861   
     axis -90 7.62852e-016 20   XYZ
    dof rx rz
    limits (-45.0 90.0)
           (-70.0 20.0)
  end
  begin
     id 5 
     name ltoes
     direction 1.53577e-011 -4.21876e-011 1   
     length 0.902235   
     axis -90 7.62852e-016 20   XYZ
    dof rx
    limits (-90.0 20.0)
  end
  begin
     id 6 
     name rhipjoint
     direction -0.656778 -0.61817 0.431866   
     length 2.9117  
     axis 0 0 0  XYZ 
  end
  begin
     id 7 
     name rfemur
     direction -0.34202 -0.939693 0   
     length 6.81603   
     axis 0 0 -20   XYZ
    dof rx ry rz
    limits (-160.0 20.0)
           (-70.0 70.0)
           (-70.0 60.0)
  end
  begin
     id 8 
     name rtibia
     direction -0.34202 -0.939693 0   
     length 8.05997   
     axis 0 0 -20   XYZ
    dof rx
    limits (-10.0 170.0)
 end
 begin
     id 9 
     name rfoot
     direction -0.0862404 -0.236944 0.967688   
     length 1.84899  
     axis -90 -7.62852e-016 -20   XYZ
    dof rx rz
    limits (-45.0 90.0)
           (-20.0 70.0)
  end
  begin
     id 10 
     name rtoes
     direction -1.53561e-011 -4.21798e-011 1   
     length 0.931579   
     axis -90 -7.62852e-016 -20   XYZ
    dof rx
    limits (-90.0 20.0)
  end
  begin
     id 11 
     name lowerback
     direction -0.0110203 0.991769 -0.127564   
     length 2.05686   
     axis 0 0 0   XYZ
    dof rx ry rz
    limits (-20.0 45.0)
           (-30.0 30.0)
           (-30.0 30.0)
  end
  begin
     id 12 
     name upperback
     direction 0.0109719 0.99993 -0.00432479   
     length 2.06234   
     axis 0 0 0   XYZ
    dof rx ry rz
    limits (-20.0 45.0)
           (-30.0 30.0)
           (-30.0 30.0)
  end
  begin
     id 13 
     name thorax
     direction 0.0173308 0.998351 0.0547306   
     length 2.09856   
     axis 0 0 0   XYZ
    dof rx ry rz
    limits (-20.0 45.0)
           (-30.0 30.0)
           (-30.0 30.0)
  end
  begin
     id 14 
     name lowerneck
     direction -0.0311736 0.989033 0.144366   
     length 1.98151   
     axis 0 0 0   XYZ
    dof rx ry rz
    limits (-20.0 45.0)
           (-30.0 30.0)
           (-30.0 30.0)
  end
  begin
     id 15 
     name upperneck
     direction 0.0421057 0.975772 -0.214698   
     length 2.01457   
     axis 0 0 0   XYZ
    dof rx ry rz
    limits (-20.0 45.0)
           (-30.0 30.0)
           (-30.0 30.0)
  end
  begin
     id 16
     name head
     direction 0.0136911 0.995958 -0.0887718  
     length 2.03562  
     axis 0 0 0   XYZ
    dof rx ry rz
    limits (-20.0 45.0)
           (-30.0 30.0)
           (-30.0 30.0)
  end
  begin
     id 17 
     name lclavicle
     direction 0.915335 0.396201 0.0720134  
     length 4.16217  
     axis 0 0 0   XYZ
    dof ry rz
    limits (-20.0 10.0)
           (0.0 20.0)
  end
  begin
     id 18 
     name lhumerus
     direction 1 -4.48965e-011 6.383e-018   
     length 4.93042   
     axis -180 -30 -90   XYZ
    dof rx ry rz
    limits (-60.0 90.0)
           (-90.0 90.0)
           (-90.0 90.0)
  end
  begin
     id 19
     name lradius
     direction 1 -4.48972e-011 8.8689e-027   
     length 3.68177   
     axis -180 -30 -90   XYZ
    dof rx
    limits (-10.0 170.0)
  end
  begin
     id 20
     name lwrist
     direction 1 -4.48953e-011 1.17971e-026   
     length 1.84089   
     axis -7.69454e-015 90 90   XYZ
    dof ry
    limits (-180.0 0.0)
 end
  begin
     id 21 
     name lhand
     direction 1 -4.49027e-011 2.35802e-026   
     length 0.721479   
     axis -1.50533e-014 90 90   XYZ
    dof rx rz
    limits (-90.0 90.0)
           (-45.0 45.0)
  end
  begin
     id 22 
     name lfingers
     direction 1 -4.48915e-011 4.72027e-026   
     length 0.581675   
     axis -3.01059e-014 90 90   XYZ
    dof rx
    limits (0.0 90.0)
  end
  begin
     id 23
     name lthumb
     direction 0.707107 -6.34948e-011 0.707107   
     length 0.835172   
     axis -90 45 -5.12164e-014   XYZ
    dof rx rz
    limits (-45.0 45.0)
           (-45.0 45.0)
  end
  begin
     id 24 
     name rclavicle
     direction -0.882781 0.469197 0.0234974   
     length 3.95647  
     axis 0 0 0   XYZ 
    dof ry rz
    limits (-10.0 20.0)
           (-20.0 0.0)
  end
  begin
     id 25 
     name rhumerus
     direction -1 -4.48965e-011 -1.54906e-018  
     length 5.07905   
     axis -180 30 90   XYZ
    dof rx ry rz
    limits (-90.0 60.0)
           (-90.0 90.0)
           (-90.0 90.0)
  end
  begin
     id 26 
     name rradius
     direction -1 -4.48972e-011 5.47489e-027   
     length 3.54394   
     axis -180 30 90   XYZ
    dof rx
    limits (-10.0 170.0)
  end
  begin
     id 27 
     name rwrist
     direction -1 -4.48955e-011 1.17969e-026   
     length 1.77197   
     axis -7.69454e-015 -90 -90   XYZ
    dof ry
    limits (-180.0 0.0)
  end
  begin
     id 28
     name rhand
     direction -1 -4.48982e-011 2.35888e-026   
     length 0.681156   
     axis -1.50533e-014 -90 -90   XYZ
    dof rx rz
    limits (-90.0 90.0)
           (-45.0 45.0)
  end
  begin
     id 29
     name rfingers
     direction -1 -4.48955e-011 4.71877e-026   
     length 0.549165   
     axis -3.01059e-014 -90 -90   XYZ
    dof rx
    limits (0.0 90.0)
  end
  begin
     id 30
     name rthumb
     direction -0.707107 -6.3491e-011 0.707107   
     length 0.788495   
     axis -90 -45 5.12164e-014   XYZ
    dof rx rz
    limits (-45.0 45.0)
           (-45.0 45.0)
  end
:hierarchy
  begin
    root lhipjoint rhipjoint lowerback
    lhipjoint lfemur
    lfemur ltibia
    ltibia lfoot
    lfoot ltoes
    rhipjoint rfemur
    rfemur rtibia
    rtibia rfoot
    rfoot rtoes
    lowerback upperback
    upperback thorax
    thorax lowerneck lclavicle rclavicle
    lowerneck upperneck
    upperneck head
    lclavicle lhumerus
    lhumerus lradius
    lradius lwrist
    lwrist lhand lthumb
    lhand lfingers
    rclavicle rhumerus
    rhumerus rradius
    rradius rwrist
    rwrist rhand rthumb
    rhand rfingers
  end

#!OML:ASF H:\Bending\Project 1\Capture day 1\Session 1\Subject.ASF
:FULLY-SPECIFIED
:DEGREES
143
root -11.0665 18.1864 -16.7752 21.9434 93.2017 10.064
lowerback 17.1177 -0.36811 -0.198654
upperback 3.39666 -0.155965 2.33128
thorax -5.94566 0.0280903 2.62069
lowerneck -23.5965 -4.46665 -7.69696
upperneck 9.37013 -5.3487 11.5716
head 7.23975 -1.73133 4.41256
rclavicle 1.98785e-015 1.59028e-014
rhumerus -35.821 36.5339 -95.3617
rradius 68.8523
rwrist -16.5851
rhand -29.2371 -34.4984
rfingers 7.12502
rthumb -2.58067 -64.4625
lclavicle 1.98785e-015 1.59028e-014
lhumerus -32.3376 -40.8046 101.497
lradius 73.0335
lwrist 55.41
lhand -37.7737 14.4455
lfingers 7.12502
lthumb -10.821 44.1467
rfemur -5.84922 -7.36932 12.8717
rtibia -3.18055e-015
rfoot -5.91989 -17.8691
rtoes 6.91664
lfemur -22.4014 -14.0809 -8.67479
ltibia 21.9118
lfoot -15.6935 9.1346
ltoes -14.7775
144
root -10.992 18.1795 -16.7696 23.755 93.3697 12.2411
lowerback 15.8065 -0.347067 -0.129751
upperback 2.98939 -0.154337 2.37916
thorax -5.66928 0.0147716 2.61995
lowerneck -23.5108 -4.55304 -7.83379
upperneck 10.4008 -5.54975 11.6542
head 7.59308 -1.81556 4.44748
rclavicle 6.36111e-015 3.06128e-014
rhumerus -37.6927 36.047 -95.9834
rradius 70.1041
rwrist -16.5715
rhand -29.2242 -34.57
rfingers 7.12502
rthumb -2.56823 -64.5342
lclavicle 6.36111e-015 3.06128e-014
lhumerus -33.2447 -41.041 102.285
lradius 73.4328
lwrist 55.8952
lhand -38.0831 14.2237
lfingers 7.12502
lthumb -11.1194 43.9091
rfemur -5.07742 -7.42932 13.013
rtibia -4.77083e-015
rfoot -6.55397 -17.7835
rtoes 8.09855
lfemur -21.7586 -14.9582 -8.49535
ltibia 21.9297
lfoot -16.3175 9.71657
ltoes -14.4341
145
root -10.9199 18.1702 -16.7674 24.7337 93.482 13.6136
lowerback 14.6219 -0.333598 -0.0447856
upperback 2.58521 -0.159303 2.38181
thorax -5.45168 -0.000327185 2.56512
lowerneck -23.4341 -4.6629 -7.97471
upperneck 11.4923 -5.78037 11.7029
head 7.97304 -1.91499 4.46925
rclavicle -3.18055e-015 -1.78906e-014
rhumerus -39.4605 35.3893 -96.5176
rradius 71.4277
rwrist -16.5489
rhand -29.1713 -34.8394
rfingers 7.12502
rthumb -2.51717 -64.8043
lclavicle -3.18055e-015 -1.78906e-014
lhumerus -34.116 -41.197 103.005
lradius 73.8534
lwrist 56.2137
lhand -38.2938 14.0519
lfingers 7.12502
lthumb -11.3227 43.7263
rfemur -4.29616 -7.45238 13.073
rtibia -3.57812e-014
rfoot -7.13883 -17.7168
rtoes 9.00343
lfemur -21.0844 -15.9252 -8.39827
ltibia 21.9745
lfoot -16.9926 10.3857
ltoes -14.1566
146
root -10.8508 18.1584 -16.7664 24.5341 93.5437 13.8457
lowerback 13.5638 -0.318139 0.0217764
upperback 2.19939 -0.163295 2.33936
thorax -5.27872 -0.0132018 2.47458
lowerneck -23.3543 -4.79545 -8.10455
upperneck 12.5805 -6.03519 11.7038
head 8.35548 -2.02902 4.47009
rclavicle 1.11319e-014 2.82274e-014
rhumerus -41.0899 34.6129 -96.9643
rradius 72.7513
rwrist -16.7021
rhand -29.3046 -35.3108
rfingers 7.12502
rthumb -2.64592 -65.2741
lclavicle 1.11319e-014 2.82274e-014
lhumerus -34.9768 -41.3027 103.676
lradius 74.3457
lwrist 56.334
lhand -38.3815 13.9008
lfingers 7.12502
lthumb -11.4072 43.5705
rfemur -3.49237 -7.45456 13.0309
rtibia 3.18055e-015
rfoot -7.65561 -17.6762
rtoes 9.53389
lfemur -20.3574 -16.9761 -8.41692
ltibia 22.0191
lfoot -17.7083 11.1069
ltoes -13.9258
147
root -10.7846 18.1444 -16.7641 23.0395 93.5851 12.8156
lowerback 12.614 -0.295005 0.0342888
upperback 1.84286 -0.162221 2.26856
thorax -5.13054 -0.0213558 2.38543
lowerneck -23.256 -4.94564 -8.22396
upperneck 13.6034 -6.30203 11.6612
head 8.71573 -2.15312 4.4518
rclavicle -6.75868e-015 2.70347e-014
rhumerus -42.5383 33.7892 -97.3365
rradius 73.9788
rwrist -17.1706
rhand -29.834 -35.9236
rfingers 7.12502
rthumb -3.15717 -65.88
lclavicle -6.75868e-015 2.70347e-014
lhumerus -35.8304 -41.3856 104.325
lradius 74.9422
lwrist 56.2675
lhand -38.401 13.744
lfingers 7.12502
lthumb -11.426 43.4127
rfemur -2.66257 -7.46588 12.8976
rtibia 7.95139e-016
rfoot -8.11281 -17.6572
rtoes 9.79958
lfemur -19.5854 -18.0682 -8.55329
ltibia 22.0486
lfoot -18.4407 11.8136
ltoes -13.7201
148
root -10.721 18.1289 -16.7579 20.5581 93.6502 10.8135
lowerback 11.7481 -0.26486 -0.0249621
upperback 1.51585 -0.156776 2.19693
thorax -4.99455 -0.024708 2.33661
lowerneck -23.1328 -5.1017 -8.33806
upperneck 14.5299 -6.56173 11.583
head 9.03987 -2.2788 4.41982
rclavicle -3.18055e-015 4.77083e-015
rhumerus -43.7852 32.982 -97.6553
rradius 75.047
rwrist -17.959
rhand -30.8481 -36.588
rfingers 7.12502
rthumb -4.1365 -66.5276
lclavicle -3.18055e-015 4.77083e-015
lhumerus -36.6679 -41.4522 104.971
lradius 75.6455
lwrist 56.0558
lhand -38.4529 13.567
lfingers 7.12502
lthumb -11.4761 43.2329
rfemur -1.81672 -7.51585 12.7146
rtibia 1.43125e-014
rfoot -8.53845 -17.6446
rtoes 10.0433
lfemur -18.8028 -19.1203 -8.77314
ltibia 22.0654
lfoot -19.1497 12.4219
ltoes -13.5582
149
root -10.6597 18.1128 -16.747 17.8742 93.7699 8.59841
lowerback 10.9415 -0.232772 -0.142995
upperback 1.20824 -0.149705 2.15146
thorax -4.86865 -0.024641 2.34921
lowerneck -22.9979 -5.24478 -8.44051
upperneck 15.3773 -6.78985 11.4646
head 9.33194 -2.39458 4.37514
rclavicle -8.94531e-015 -2.70347e-014
rhumerus -44.8504 32.2249 -97.9406
rradius 75.9693
rwrist -18.9065
rhand -32.2636 -37.2378
rfingers 7.12502
rthumb -5.50327 -67.1464
lclavicle -8.94531e-015 -2.70347e-014
lhumerus -37.4775 -41.4862 105.621
lradius 76.4286
lwrist 55.7519
lhand -38.622 13.3729
lfingers 7.12502
lthumb -11.6392 43.0296
rfemur -0.979675 -7.61572 12.5424
rtibia -1.43125e-014
rfoot -8.96073 -17.6202
rtoes 10.4956
lfemur -18.0567 -20.036 -9.01421
ltibia 22.0861
lfoot -19.7904 12.8615
ltoes -13.4943
150
root -10.6006 18.0969 -16.7323 15.9363 93.9385 7.09412
lowerback 10.1728 -0.204359 -0.278131
upperback 0.906165 -0.142435 2.14763
thorax -4.75603 -0.0224946 2.41571
lowerneck -22.8861 -5.35156 -8.50556
upperneck 16.2068 -6.96017 11.2833
head 9.6137 -2.48755 4.31035
rclavicle 8.74653e-015 -1.66979e-014
rhumerus -45.7896 31.5172 -98.203
rradius 76.8406
rwrist -19.7387
rhand -33.8617 -37.8768
rfingers 7.12502
rthumb -7.04603 -67.7396
lclavicle 8.74653e-015 -1.66979e-014
lhumerus -38.2509 -41.4581 106.258
lradius 77.2472
lwrist 55.4069
lhand -38.9249 13.1833
lfingers 7.12502
lthumb -11.9313 42.8233
rfemur -0.186322 -7.74704 12.4408
rtibia 1.43125e-014
rfoot -9.38945 -17.5733
rtoes 11.2445
lfemur -17.3869 -20.7415 -9.20697
ltibia 22.1329
lfoot -20.3339 13.1069
ltoes -13.5741
151
root -10.5439 18.0819 -16.7159 15.367 94.1139 6.90887
lowerback 9.42521 -0.182381 -0.377386
upperback 0.600994 -0.133433 2.18326
thorax -4.657 -0.0185799 2.5034
lowerneck -22.8436 -5.39988 -8.49141
upperneck 17.0965 -7.05007 11.0055
head 9.91528 -2.54597 4.2112
rclavicle -4.57205e-015 -2.38542e-014
rhumerus -46.6687 30.8334 -98.4408
rradius 77.7991
rwrist -20.1741
rhand -35.3878 -38.5719
rfingers 7.12502
rthumb -8.51901 -68.3801
lclavicle -4.57205e-015 -2.38542e-014
lhumerus -38.9838 -41.3425 106.84
lradius 78.0618
lwrist 55.0683
lhand -39.2947 13.0381
lfingers 7.12502
lthumb -12.2878 42.6571
rfemur 0.529784 -7.86456 12.4482
rtibia -9.54166e-015
rfoot -9.8076 -17.5074
rtoes 12.1809
lfemur -16.8083 -21.2199 -9.30224
ltibia 22.2225
lfoot -20.7865 13.1927
ltoes -13.7797
152
root -10.49 18.0678 -16.7001 16.2766 94.2414 8.15481
lowerback 8.69055 -0.165928 -0.399337
upperback 0.295397 -0.119481 2.24034
thorax -4.56464 -0.0124899 2.56944
lowerneck -22.9084 -5.37567 -8.35872
upperneck 18.1039 -7.04706 10.6088
head 10.2615 -2.56231 4.06575
rclavicle 6.95746e-015 4.81059e-014
rhumerus -47.5299 30.1429 -98.6413
rradius 78.9614
rwrist -20.0327
rhand -36.6474 -39.3834
rfingers 7.12502
rthumb -9.73451 -69.1384
lclavicle 6.95746e-015 4.81059e-014
lhumerus -39.6757 -41.1307 107.32
lradius 78.8555
lwrist 54.7838
lhand -39.6129 12.9853
lfingers 7.12502
lthumb -12.5946 42.5856
rfemur 1.15112 -7.91384 12.5683
rtibia 3.02153e-014
rfoot -10.1791 -17.4406
rtoes 13.0539
lfemur -16.3026 -21.5175 -9.29139
ltibia 22.3584
lfoot -21.1886 13.1995
ltoes -14.0117
153
root -10.439 18.0544 -16.6864 18.3849 94.2825 10.5716
lowerback 7.97352 -0.152368 -0.331314
upperback 0.00304353 -0.0991179 2.29295
thorax -4.4676 -0.00442541 2.57947
lowerneck -23.0882 -5.278 -8.09366
upperneck 19.2329 -6.95328 10.1035
head 10.6586 -2.53554 3.87481
rclavicle 5.66536e-015 -3.93594e-014
rhumerus -48.3693 29.4334 -98.7879
rradius 80.3654
rwrist -19.2952
rhand -37.5563 -40.2849
rfingers 7.12502
rthumb -10.6113 -69.997
lclavicle 5.66536e-015 -3.93594e-014
lhumerus -40.3305 -40.8359 107.657
lradius 79.6422
lwrist 54.6016
lhand -39.7774 13.0626
lfingers 7.12502
lthumb -12.7532 42.6531
rfemur 1.68748 -7.85594 12.7689
rtibia -1.11319e-014
rfoot -10.4687 -17.3972
rtoes 13.6014
lfemur -15.8237 -21.7217 -9.20985
ltibia 22.5299
lfoot -21.5946 13.2169
ltoes -14.1167
154
root -10.3909 18.0408 -16.6751 21.2 94.2301 13.6989
lowerback 7.29294 -0.140609 -0.192993
upperback -0.257725 -0.0758666 2.31808
thorax -4.35731 0.00356571 2.52128
lowerneck -23.3489 -5.12047 -7.72276
upperneck 20.4251 -6.78674 9.53987
head 11.0883 -2.47206 3.65694
rclavicle 8.24956e-015 1.15295e-014
rhumerus -49.1381 28.7261 -98.8703
rradius 81.9489
rwrist -18.0932
rhand -38.1363 -41.1466
rfingers 7.12502
rthumb -11.1707 -70.8292
lclavicle 8.24956e-015 1.15295e-014
lhumerus -40.9562 -40.4866 107.839
lradius 80.4568
lwrist 54.5598
lhand -39.7667 13.2713
lfingers 7.12502
lthumb -12.7429 42.8624
rfemur 2.17598 -7.68622 12.9948
rtibia -4.77083e-015
rfoot -10.6626 -17.3942
rtoes 13.683
lfemur -15.316 -21.9142 -9.12221
ltibia 22.7168
lfoot -22.0404 13.3011
ltoes -13.9742
155
root -10.3454 18.0262 -16.6656 24.1327 94.1069 16.9799
lowerback 6.67658 -0.133736 -0.0264838
upperback -0.472423 -0.0592886 2.30503
thorax -4.23412 0.00721346 2.40879
lowerneck -23.6245 -4.92751 -7.30698
upperneck 21.5831 -6.5762 8.98928
head 11.5131 -2.38426 3.44219
rclavicle 6.95746e-015 -8.34896e-015
rhumerus -49.7676 28.0769 -98.8909
rradius 83.5752
rwrist -16.6409
rhand -38.4745 -41.8029
rfingers 7.12502
rthumb -11.4969 -71.4677
lclavicle 6.95746e-015 -8.34896e-015
lhumerus -41.5641 -40.1126 107.887
lradius 81.3338
lwrist 54.667
lhand -39.6668 13.5656
lfingers 7.12502
lthumb -12.6466 43.1628
rfemur 2.66787 -7.43659 13.1896
rtibia 4.77083e-015
rfoot -10.7756 -17.4326
rtoes 13.3293
lfemur -14.7355 -22.1326 -9.09546
ltibia 22.8973
lfoot -22.5236 13.4505
ltoes -13.5633
156
root -10.3021 18.0103 -16.6567 26.6005 93.9489 19.854
lowerback 6.14947 -0.138137 0.120852
upperback -0.636427 -0.0616052 2.25843
thorax -4.10719 0.00145823 2.27486
lowerneck -23.8426 -4.72693 -6.91727
upperneck 22.612 -6.35163 8.51161
head 11.8913 -2.28712 3.25835
rclavicle 0 2.78299e-015
rhumerus -50.2035 27.5617 -98.8652
rradius 85.0867
rwrist -15.1487
rhand -38.6708 -42.1531
rfingers 7.12502
rthumb -11.6862 -71.8071
lclavicle 0 2.78299e-015
lhumerus -42.1637 -39.7346 107.847
lradius 82.2833
lwrist 54.8834
lhand -39.6374 13.8639
lfingers 7.12502
lthumb -12.6182 43.4628
rfemur 3.20702 -7.15839 13.3147
rtibia 1.59028e-014
rfoot -10.8421 -17.4987
rtoes 12.6991
lfemur -14.0652 -22.3566 -9.17371
ltibia 23.0546
lfoot -23.004 13.6153
ltoes -12.9963
157
root -10.2607 17.9934 -16.6478 28.2429 93.787 21.9618
lowerback 5.72153 -0.159473 0.215316
upperback -0.756384 -0.0913028 2.1955
thorax -3.98919 -0.016906 2.1569
lowerneck -23.9527 -4.54039 -6.60557
upperneck 23.4568 -6.1331 8.12953
head 12.1931 -2.19312 3.11871
rclavicle 1.00386e-014 2.38542e-014
rhumerus -50.4316 27.2577 -98.8171
rradius 86.361
rwrist -13.7645
rhand -38.798 -42.2216
rfingers 7.12502
rthumb -11.8089 -71.8687
lclavicle 1.00386e-014 2.38542e-014
lhumerus -42.7584 -39.3607 107.773
lradius 83.2784
lwrist 55.1249
lhand -39.8347 14.0765
lfingers 7.12502
lthumb -12.8085 43.6635
rfemur 3.80989 -6.8946 13.3614
rtibia -4.77083e-015
rfoot -10.8973 -17.5731
rtoes 11.9864
lfemur -13.3183 -22.5242 -9.36106
ltibia 23.1799
lfoot -23.4237 13.7305
ltoes -12.4813
